<svg xmlns="http://www.w3.org/2000/svg" viewBox="0 0 66 66" width="66" height="66" shape-rendering="crispEdges"><rect x="0" y="0" width="66" height="6" fill="#000000"/><rect x="0" y="6" width="6" height="6" fill="#000000"/><rect x="6" y="6" width="54" height="6" fill="#f4f0dd"/><rect x="60" y="6" width="6" height="6" fill="#000000"/><rect x="0" y="12" width="6" height="6" fill="#000000"/><rect x="6" y="12" width="6" height="6" fill="#f4f0dd"/><rect x="12" y="12" width="6" height="6" fill="#000000"/><rect x="18" y="12" width="30" height="6" fill="#ff00d4"/><rect x="48" y="12" width="6" height="6" fill="#000000"/><rect x="54" y="12" width="6" height="6" fill="#f4f0dd"/><rect x="60" y="12" width="6" height="6" fill="#000000"/><rect x="0" y="18" width="6" height="6" fill="#000000"/><rect x="6" y="18" width="6" height="6" fill="#f4f0dd"/><rect x="12" y="18" width="6" height="6" fill="#000000"/><rect x="18" y="18" width="12" height="6" fill="#ff00d4"/><rect x="36" y="18" width="12" height="6" fill="#ff00d4"/><rect x="48" y="18" width="6" height="6" fill="#000000"/><rect x="54" y="18" width="6" height="6" fill="#f4f0dd"/><rect x="60" y="18" width="6" height="6" fill="#000000"/><rect x="0" y="24" width="6" height="6" fill="#000000"/><rect x="6" y="24" width="6" height="6" fill="#f4f0dd"/><rect x="12" y="24" width="6" height="6" fill="#000000"/><rect x="18" y="24" width="30" height="6" fill="#ff00d4"/><rect x="48" y="24" width="6" height="6" fill="#000000"/><rect x="54" y="24" width="6" height="6" fill="#f4f0dd"/><rect x="60" y="24" width="6" height="6" fill="#000000"/><rect x="0" y="30" width="6" height="6" fill="#000000"/><rect x="6" y="30" width="54" height="6" fill="#f4f0dd"/><rect x="60" y="30" width="6" height="6" fill="#000000"/><rect x="0" y="36" width="6" height="6" fill="#000000"/><rect x="6" y="36" width="6" height="6" fill="#f4f0dd"/><rect x="12" y="36" width="42" height="6" fill="#6e6e66"/><rect x="54" y="36" width="6" height="6" fill="#f4f0dd"/><rect x="60" y="36" width="6" height="6" fill="#000000"/><rect x="0" y="42" width="6" height="6" fill="#000000"/><rect x="6" y="42" width="6" height="6" fill="#f4f0dd"/><rect x="12" y="42" width="6" height="6" fill="#6e6e66"/><rect x="18" y="42" width="30" height="6" fill="#ff00d4"/><rect x="48" y="42" width="6" height="6" fill="#6e6e66"/><rect x="54" y="42" width="6" height="6" fill="#f4f0dd"/><rect x="60" y="42" width="6" height="6" fill="#000000"/><rect x="0" y="48" width="6" height="6" fill="#000000"/><rect x="6" y="48" width="6" height="6" fill="#f4f0dd"/><rect x="12" y="48" width="42" height="6" fill="#6e6e66"/><rect x="54" y="48" width="6" height="6" fill="#f4f0dd"/><rect x="60" y="48" width="6" height="6" fill="#000000"/><rect x="0" y="54" width="6" height="6" fill="#000000"/><rect x="6" y="54" width="54" height="6" fill="#f4f0dd"/><rect x="60" y="54" width="6" height="6" fill="#000000"/><rect x="0" y="60" width="66" height="6" fill="#000000"/></svg>
