<svg xmlns="http://www.w3.org/2000/svg" viewBox="0 0 72 60" width="72" height="60" shape-rendering="crispEdges"><rect x="0" y="0" width="72" height="6" fill="#000000"/><rect x="0" y="6" width="6" height="6" fill="#000000"/><rect x="6" y="6" width="54" height="6" fill="#ff6a00"/><rect x="60" y="6" width="6" height="6" fill="#a33f00"/><rect x="66" y="6" width="6" height="6" fill="#000000"/><rect x="0" y="12" width="6" height="6" fill="#000000"/><rect x="6" y="12" width="6" height="6" fill="#ff6a00"/><rect x="12" y="12" width="48" height="6" fill="#00f5ff"/><rect x="60" y="12" width="6" height="6" fill="#ff6a00"/><rect x="66" y="12" width="6" height="6" fill="#000000"/><rect x="0" y="18" width="6" height="6" fill="#000000"/><rect x="6" y="18" width="6" height="6" fill="#ff6a00"/><rect x="12" y="18" width="48" height="6" fill="#00f5ff"/><rect x="60" y="18" width="6" height="6" fill="#ff6a00"/><rect x="66" y="18" width="6" height="6" fill="#000000"/><rect x="0" y="24" width="6" height="6" fill="#000000"/><rect x="6" y="24" width="6" height="6" fill="#ff6a00"/><rect x="12" y="24" width="48" height="6" fill="#00f5ff"/><rect x="60" y="24" width="6" height="6" fill="#ff6a00"/><rect x="66" y="24" width="6" height="6" fill="#000000"/><rect x="0" y="30" width="6" height="6" fill="#000000"/><rect x="6" y="30" width="60" height="6" fill="#ff6a00"/><rect x="66" y="30" width="6" height="6" fill="#000000"/><rect x="0" y="36" width="6" height="6" fill="#000000"/><rect x="6" y="36" width="6" height="6" fill="#ff6a00"/><rect x="12" y="36" width="6" height="6" fill="#a33f00"/><rect x="18" y="36" width="6" height="6" fill="#ff6a00"/><rect x="24" y="36" width="6" height="6" fill="#a33f00"/><rect x="30" y="36" width="6" height="6" fill="#ff6a00"/><rect x="36" y="36" width="6" height="6" fill="#a33f00"/><rect x="42" y="36" width="6" height="6" fill="#ff6a00"/><rect x="48" y="36" width="6" height="6" fill="#a33f00"/><rect x="54" y="36" width="12" height="6" fill="#ff6a00"/><rect x="66" y="36" width="6" height="6" fill="#000000"/><rect x="0" y="42" width="6" height="6" fill="#000000"/><rect x="6" y="42" width="60" height="6" fill="#ff6a00"/><rect x="66" y="42" width="6" height="6" fill="#000000"/><rect x="0" y="48" width="6" height="6" fill="#000000"/><rect x="6" y="48" width="6" height="6" fill="#030303"/><rect x="18" y="48" width="6" height="6" fill="#030303"/><rect x="30" y="48" width="6" height="6" fill="#030303"/><rect x="42" y="48" width="6" height="6" fill="#030303"/><rect x="54" y="48" width="6" height="6" fill="#030303"/><rect x="60" y="48" width="6" height="6" fill="#ff6a00"/><rect x="66" y="48" width="6" height="6" fill="#000000"/><rect x="0" y="54" width="72" height="6" fill="#000000"/></svg>
