<svg xmlns="http://www.w3.org/2000/svg" viewBox="0 0 320 400" width="320" height="400" shape-rendering="crispEdges"><rect width="320" height="400" fill="#00f5ff"/><defs><pattern id="halftone" width="12" height="24" patternUnits="userSpaceOnUse"><rect x="0" y="0" width="2" height="2" fill="#000000" opacity="0.18"/><rect x="6" y="12" width="2" height="2" fill="#000000" opacity="0.18"/></pattern></defs><rect width="320" height="400" fill="url(#halftone)"/><rect x="8" y="8" width="304" height="384" fill="none" stroke="#000000" stroke-width="6"/><rect x="16" y="16" width="288" height="368" fill="none" stroke="#000000" stroke-width="2"/><rect x="16" y="26" width="288" height="26" fill="#000000"/><g fill="#000000"><rect x="26" y="33" width="2" height="2"/><rect x="34" y="33" width="2" height="2"/><rect x="26" y="35" width="2" height="2"/><rect x="34" y="35" width="2" height="2"/><rect x="26" y="37" width="2" height="2"/><rect x="34" y="37" width="2" height="2"/><rect x="26" y="39" width="2" height="2"/><rect x="34" y="39" width="2" height="2"/><rect x="26" y="41" width="2" height="2"/><rect x="30" y="41" width="2" height="2"/><rect x="34" y="41" width="2" height="2"/><rect x="26" y="43" width="2" height="2"/><rect x="28" y="43" width="2" height="2"/><rect x="32" y="43" width="2" height="2"/><rect x="34" y="43" width="2" height="2"/><rect x="26" y="45" width="2" height="2"/><rect x="34" y="45" width="2" height="2"/><rect x="38" y="33" width="2" height="2"/><rect x="40" y="33" width="2" height="2"/><rect x="42" y="33" width="2" height="2"/><rect x="44" y="33" width="2" height="2"/><rect x="46" y="33" width="2" height="2"/><rect x="42" y="35" width="2" height="2"/><rect x="42" y="37" width="2" height="2"/><rect x="42" y="39" width="2" height="2"/><rect x="42" y="41" width="2" height="2"/><rect x="42" y="43" width="2" height="2"/><rect x="38" y="45" width="2" height="2"/><rect x="40" y="45" width="2" height="2"/><rect x="42" y="45" width="2" height="2"/><rect x="44" y="45" width="2" height="2"/><rect x="46" y="45" width="2" height="2"/><rect x="50" y="33" width="2" height="2"/><rect x="52" y="33" width="2" height="2"/><rect x="54" y="33" width="2" height="2"/><rect x="56" y="33" width="2" height="2"/><rect x="58" y="33" width="2" height="2"/><rect x="54" y="35" width="2" height="2"/><rect x="54" y="37" width="2" height="2"/><rect x="54" y="39" width="2" height="2"/><rect x="54" y="41" width="2" height="2"/><rect x="54" y="43" width="2" height="2"/><rect x="54" y="45" width="2" height="2"/><rect x="62" y="33" width="2" height="2"/><rect x="70" y="33" width="2" height="2"/><rect x="62" y="35" width="2" height="2"/><rect x="64" y="35" width="2" height="2"/><rect x="70" y="35" width="2" height="2"/><rect x="62" y="37" width="2" height="2"/><rect x="66" y="37" width="2" height="2"/><rect x="70" y="37" width="2" height="2"/><rect x="62" y="39" width="2" height="2"/><rect x="68" y="39" width="2" height="2"/><rect x="70" y="39" width="2" height="2"/><rect x="62" y="41" width="2" height="2"/><rect x="70" y="41" width="2" height="2"/><rect x="62" y="43" width="2" height="2"/><rect x="70" y="43" width="2" height="2"/><rect x="62" y="45" width="2" height="2"/><rect x="70" y="45" width="2" height="2"/><rect x="74" y="33" width="2" height="2"/><rect x="76" y="33" width="2" height="2"/><rect x="78" y="33" width="2" height="2"/><rect x="80" y="33" width="2" height="2"/><rect x="82" y="33" width="2" height="2"/><rect x="74" y="35" width="2" height="2"/><rect x="74" y="37" width="2" height="2"/><rect x="74" y="39" width="2" height="2"/><rect x="76" y="39" width="2" height="2"/><rect x="78" y="39" width="2" height="2"/><rect x="80" y="39" width="2" height="2"/><rect x="74" y="41" width="2" height="2"/><rect x="74" y="43" width="2" height="2"/><rect x="74" y="45" width="2" height="2"/><rect x="76" y="45" width="2" height="2"/><rect x="78" y="45" width="2" height="2"/><rect x="80" y="45" width="2" height="2"/><rect x="82" y="45" width="2" height="2"/><rect x="88" y="33" width="2" height="2"/><rect x="90" y="33" width="2" height="2"/><rect x="92" y="33" width="2" height="2"/><rect x="94" y="33" width="2" height="2"/><rect x="86" y="35" width="2" height="2"/><rect x="86" y="37" width="2" height="2"/><rect x="88" y="39" width="2" height="2"/><rect x="90" y="39" width="2" height="2"/><rect x="92" y="39" width="2" height="2"/><rect x="94" y="41" width="2" height="2"/><rect x="94" y="43" width="2" height="2"/><rect x="86" y="45" width="2" height="2"/><rect x="88" y="45" width="2" height="2"/><rect x="90" y="45" width="2" height="2"/><rect x="92" y="45" width="2" height="2"/><rect x="100" y="33" width="2" height="2"/><rect x="102" y="33" width="2" height="2"/><rect x="104" y="33" width="2" height="2"/><rect x="106" y="33" width="2" height="2"/><rect x="98" y="35" width="2" height="2"/><rect x="98" y="37" width="2" height="2"/><rect x="100" y="39" width="2" height="2"/><rect x="102" y="39" width="2" height="2"/><rect x="104" y="39" width="2" height="2"/><rect x="106" y="41" width="2" height="2"/><rect x="106" y="43" width="2" height="2"/><rect x="98" y="45" width="2" height="2"/><rect x="100" y="45" width="2" height="2"/><rect x="102" y="45" width="2" height="2"/><rect x="104" y="45" width="2" height="2"/></g><rect x="40" y="70" width="240" height="170" fill="#030303" stroke="#000000" stroke-width="4"/><rect x="132" y="85" width="42" height="7" fill="#000000"/><rect x="125" y="92" width="7" height="7" fill="#000000"/><rect x="132" y="92" width="42" height="7" fill="#f4f0dd"/><rect x="174" y="92" width="7" height="7" fill="#000000"/><rect x="118" y="99" width="7" height="7" fill="#000000"/><rect x="125" y="99" width="56" height="7" fill="#f4f0dd"/><rect x="181" y="99" width="7" height="7" fill="#000000"/><rect x="118" y="106" width="7" height="7" fill="#000000"/><rect x="125" y="106" width="56" height="7" fill="#ff00d4"/><rect x="181" y="106" width="7" height="7" fill="#000000"/><rect x="118" y="113" width="7" height="7" fill="#000000"/><rect x="125" y="113" width="56" height="7" fill="#c88a5a"/><rect x="181" y="113" width="7" height="7" fill="#000000"/><rect x="118" y="120" width="7" height="7" fill="#000000"/><rect x="125" y="120" width="7" height="7" fill="#c88a5a"/><rect x="132" y="120" width="7" height="7" fill="#030303"/><rect x="139" y="120" width="7" height="7" fill="#000000"/><rect x="146" y="120" width="14" height="7" fill="#c88a5a"/><rect x="160" y="120" width="7" height="7" fill="#000000"/><rect x="167" y="120" width="7" height="7" fill="#030303"/><rect x="174" y="120" width="7" height="7" fill="#c88a5a"/><rect x="181" y="120" width="7" height="7" fill="#000000"/><rect x="118" y="127" width="7" height="7" fill="#000000"/><rect x="125" y="127" width="56" height="7" fill="#c88a5a"/><rect x="181" y="127" width="7" height="7" fill="#000000"/><rect x="125" y="134" width="7" height="7" fill="#000000"/><rect x="132" y="134" width="42" height="7" fill="#c88a5a"/><rect x="174" y="134" width="7" height="7" fill="#000000"/><rect x="132" y="141" width="7" height="7" fill="#000000"/><rect x="139" y="141" width="28" height="7" fill="#c88a5a"/><rect x="167" y="141" width="7" height="7" fill="#000000"/><rect x="125" y="148" width="7" height="7" fill="#000000"/><rect x="132" y="148" width="7" height="7" fill="#f4f0dd"/><rect x="139" y="148" width="7" height="7" fill="#1d1d2b"/><rect x="146" y="148" width="7" height="7" fill="#f4f0dd"/><rect x="153" y="148" width="7" height="7" fill="#1d1d2b"/><rect x="160" y="148" width="7" height="7" fill="#f4f0dd"/><rect x="167" y="148" width="7" height="7" fill="#1d1d2b"/><rect x="174" y="148" width="7" height="7" fill="#000000"/><rect x="118" y="155" width="7" height="7" fill="#000000"/><rect x="125" y="155" width="7" height="7" fill="#f4f0dd"/><rect x="132" y="155" width="7" height="7" fill="#1d1d2b"/><rect x="139" y="155" width="7" height="7" fill="#f4f0dd"/><rect x="146" y="155" width="7" height="7" fill="#1d1d2b"/><rect x="153" y="155" width="7" height="7" fill="#f4f0dd"/><rect x="160" y="155" width="7" height="7" fill="#1d1d2b"/><rect x="167" y="155" width="7" height="7" fill="#f4f0dd"/><rect x="174" y="155" width="7" height="7" fill="#1d1d2b"/><rect x="181" y="155" width="7" height="7" fill="#000000"/><rect x="111" y="162" width="7" height="7" fill="#000000"/><rect x="118" y="162" width="7" height="7" fill="#f4f0dd"/><rect x="125" y="162" width="7" height="7" fill="#1d1d2b"/><rect x="132" y="162" width="7" height="7" fill="#f4f0dd"/><rect x="139" y="162" width="7" height="7" fill="#1d1d2b"/><rect x="146" y="162" width="7" height="7" fill="#f4f0dd"/><rect x="153" y="162" width="7" height="7" fill="#1d1d2b"/><rect x="160" y="162" width="7" height="7" fill="#f4f0dd"/><rect x="167" y="162" width="7" height="7" fill="#1d1d2b"/><rect x="174" y="162" width="7" height="7" fill="#f4f0dd"/><rect x="181" y="162" width="7" height="7" fill="#1d1d2b"/><rect x="188" y="162" width="7" height="7" fill="#000000"/><rect x="111" y="169" width="7" height="7" fill="#000000"/><rect x="118" y="169" width="7" height="7" fill="#f4f0dd"/><rect x="125" y="169" width="7" height="7" fill="#1d1d2b"/><rect x="132" y="169" width="7" height="7" fill="#f4f0dd"/><rect x="139" y="169" width="7" height="7" fill="#1d1d2b"/><rect x="146" y="169" width="7" height="7" fill="#f4f0dd"/><rect x="153" y="169" width="7" height="7" fill="#1d1d2b"/><rect x="160" y="169" width="7" height="7" fill="#f4f0dd"/><rect x="167" y="169" width="7" height="7" fill="#1d1d2b"/><rect x="174" y="169" width="7" height="7" fill="#f4f0dd"/><rect x="181" y="169" width="7" height="7" fill="#1d1d2b"/><rect x="188" y="169" width="7" height="7" fill="#000000"/><rect x="111" y="176" width="7" height="7" fill="#000000"/><rect x="118" y="176" width="7" height="7" fill="#c88a5a"/><rect x="125" y="176" width="7" height="7" fill="#1d1d2b"/><rect x="132" y="176" width="7" height="7" fill="#f4f0dd"/><rect x="139" y="176" width="7" height="7" fill="#1d1d2b"/><rect x="146" y="176" width="7" height="7" fill="#f4f0dd"/><rect x="153" y="176" width="7" height="7" fill="#1d1d2b"/><rect x="160" y="176" width="7" height="7" fill="#f4f0dd"/><rect x="167" y="176" width="7" height="7" fill="#1d1d2b"/><rect x="174" y="176" width="7" height="7" fill="#f4f0dd"/><rect x="181" y="176" width="7" height="7" fill="#1d1d2b"/><rect x="188" y="176" width="7" height="7" fill="#c88a5a"/><rect x="195" y="176" width="7" height="7" fill="#000000"/><rect x="111" y="183" width="7" height="7" fill="#000000"/><rect x="118" y="183" width="7" height="7" fill="#c88a5a"/><rect x="125" y="183" width="7" height="7" fill="#f4f0dd"/><rect x="132" y="183" width="7" height="7" fill="#1d1d2b"/><rect x="139" y="183" width="7" height="7" fill="#f4f0dd"/><rect x="146" y="183" width="7" height="7" fill="#1d1d2b"/><rect x="153" y="183" width="7" height="7" fill="#f4f0dd"/><rect x="160" y="183" width="7" height="7" fill="#1d1d2b"/><rect x="167" y="183" width="7" height="7" fill="#f4f0dd"/><rect x="174" y="183" width="7" height="7" fill="#1d1d2b"/><rect x="181" y="183" width="7" height="7" fill="#f4f0dd"/><rect x="188" y="183" width="7" height="7" fill="#c88a5a"/><rect x="195" y="183" width="7" height="7" fill="#000000"/><rect x="118" y="190" width="7" height="7" fill="#000000"/><rect x="125" y="190" width="7" height="7" fill="#ffe600"/><rect x="132" y="190" width="7" height="7" fill="#f4f0dd"/><rect x="139" y="190" width="7" height="7" fill="#1d1d2b"/><rect x="146" y="190" width="7" height="7" fill="#f4f0dd"/><rect x="153" y="190" width="7" height="7" fill="#1d1d2b"/><rect x="160" y="190" width="7" height="7" fill="#f4f0dd"/><rect x="167" y="190" width="7" height="7" fill="#1d1d2b"/><rect x="174" y="190" width="7" height="7" fill="#f4f0dd"/><rect x="181" y="190" width="7" height="7" fill="#1d1d2b"/><rect x="188" y="190" width="7" height="7" fill="#000000"/><rect x="118" y="197" width="7" height="7" fill="#000000"/><rect x="125" y="197" width="7" height="7" fill="#f4f0dd"/><rect x="132" y="197" width="7" height="7" fill="#ffe600"/><rect x="139" y="197" width="7" height="7" fill="#f4f0dd"/><rect x="146" y="197" width="7" height="7" fill="#1d1d2b"/><rect x="153" y="197" width="7" height="7" fill="#f4f0dd"/><rect x="160" y="197" width="7" height="7" fill="#1d1d2b"/><rect x="167" y="197" width="7" height="7" fill="#f4f0dd"/><rect x="174" y="197" width="7" height="7" fill="#1d1d2b"/><rect x="181" y="197" width="7" height="7" fill="#f4f0dd"/><rect x="188" y="197" width="7" height="7" fill="#000000"/><rect x="125" y="204" width="7" height="7" fill="#000000"/><rect x="132" y="204" width="49" height="7" fill="#12121f"/><rect x="181" y="204" width="7" height="7" fill="#000000"/><rect x="125" y="211" width="7" height="7" fill="#000000"/><rect x="132" y="211" width="21" height="7" fill="#12121f"/><rect x="160" y="211" width="21" height="7" fill="#12121f"/><rect x="181" y="211" width="7" height="7" fill="#000000"/><rect x="125" y="218" width="21" height="7" fill="#000000"/><rect x="167" y="218" width="21" height="7" fill="#000000"/><g fill="#000000"><rect x="118" y="264" width="5" height="5"/><rect x="123" y="264" width="5" height="5"/><rect x="128" y="264" width="5" height="5"/><rect x="133" y="264" width="5" height="5"/><rect x="138" y="264" width="5" height="5"/><rect x="128" y="269" width="5" height="5"/><rect x="128" y="274" width="5" height="5"/><rect x="128" y="279" width="5" height="5"/><rect x="128" y="284" width="5" height="5"/><rect x="128" y="289" width="5" height="5"/><rect x="128" y="294" width="5" height="5"/><rect x="148" y="264" width="5" height="5"/><rect x="168" y="264" width="5" height="5"/><rect x="148" y="269" width="5" height="5"/><rect x="168" y="269" width="5" height="5"/><rect x="148" y="274" width="5" height="5"/><rect x="168" y="274" width="5" height="5"/><rect x="148" y="279" width="5" height="5"/><rect x="153" y="279" width="5" height="5"/><rect x="158" y="279" width="5" height="5"/><rect x="163" y="279" width="5" height="5"/><rect x="168" y="279" width="5" height="5"/><rect x="148" y="284" width="5" height="5"/><rect x="168" y="284" width="5" height="5"/><rect x="148" y="289" width="5" height="5"/><rect x="168" y="289" width="5" height="5"/><rect x="148" y="294" width="5" height="5"/><rect x="168" y="294" width="5" height="5"/><rect x="178" y="264" width="5" height="5"/><rect x="183" y="264" width="5" height="5"/><rect x="188" y="264" width="5" height="5"/><rect x="193" y="264" width="5" height="5"/><rect x="198" y="264" width="5" height="5"/><rect x="178" y="269" width="5" height="5"/><rect x="178" y="274" width="5" height="5"/><rect x="178" y="279" width="5" height="5"/><rect x="183" y="279" width="5" height="5"/><rect x="188" y="279" width="5" height="5"/><rect x="193" y="279" width="5" height="5"/><rect x="178" y="284" width="5" height="5"/><rect x="178" y="289" width="5" height="5"/><rect x="178" y="294" width="5" height="5"/><rect x="183" y="294" width="5" height="5"/><rect x="188" y="294" width="5" height="5"/><rect x="193" y="294" width="5" height="5"/><rect x="198" y="294" width="5" height="5"/></g><g fill="#000000"><rect x="118" y="261" width="5" height="5"/><rect x="123" y="261" width="5" height="5"/><rect x="128" y="261" width="5" height="5"/><rect x="133" y="261" width="5" height="5"/><rect x="138" y="261" width="5" height="5"/><rect x="128" y="266" width="5" height="5"/><rect x="128" y="271" width="5" height="5"/><rect x="128" y="276" width="5" height="5"/><rect x="128" y="281" width="5" height="5"/><rect x="128" y="286" width="5" height="5"/><rect x="128" y="291" width="5" height="5"/><rect x="148" y="261" width="5" height="5"/><rect x="168" y="261" width="5" height="5"/><rect x="148" y="266" width="5" height="5"/><rect x="168" y="266" width="5" height="5"/><rect x="148" y="271" width="5" height="5"/><rect x="168" y="271" width="5" height="5"/><rect x="148" y="276" width="5" height="5"/><rect x="153" y="276" width="5" height="5"/><rect x="158" y="276" width="5" height="5"/><rect x="163" y="276" width="5" height="5"/><rect x="168" y="276" width="5" height="5"/><rect x="148" y="281" width="5" height="5"/><rect x="168" y="281" width="5" height="5"/><rect x="148" y="286" width="5" height="5"/><rect x="168" y="286" width="5" height="5"/><rect x="148" y="291" width="5" height="5"/><rect x="168" y="291" width="5" height="5"/><rect x="178" y="261" width="5" height="5"/><rect x="183" y="261" width="5" height="5"/><rect x="188" y="261" width="5" height="5"/><rect x="193" y="261" width="5" height="5"/><rect x="198" y="261" width="5" height="5"/><rect x="178" y="266" width="5" height="5"/><rect x="178" y="271" width="5" height="5"/><rect x="178" y="276" width="5" height="5"/><rect x="183" y="276" width="5" height="5"/><rect x="188" y="276" width="5" height="5"/><rect x="193" y="276" width="5" height="5"/><rect x="178" y="281" width="5" height="5"/><rect x="178" y="286" width="5" height="5"/><rect x="178" y="291" width="5" height="5"/><rect x="183" y="291" width="5" height="5"/><rect x="188" y="291" width="5" height="5"/><rect x="193" y="291" width="5" height="5"/><rect x="198" y="291" width="5" height="5"/></g><g fill="#000000"><rect x="33" y="306" width="5" height="5"/><rect x="38" y="306" width="5" height="5"/><rect x="43" y="306" width="5" height="5"/><rect x="28" y="311" width="5" height="5"/><rect x="48" y="311" width="5" height="5"/><rect x="28" y="316" width="5" height="5"/><rect x="48" y="316" width="5" height="5"/><rect x="28" y="321" width="5" height="5"/><rect x="33" y="321" width="5" height="5"/><rect x="38" y="321" width="5" height="5"/><rect x="43" y="321" width="5" height="5"/><rect x="48" y="321" width="5" height="5"/><rect x="28" y="326" width="5" height="5"/><rect x="48" y="326" width="5" height="5"/><rect x="28" y="331" width="5" height="5"/><rect x="48" y="331" width="5" height="5"/><rect x="28" y="336" width="5" height="5"/><rect x="48" y="336" width="5" height="5"/><rect x="58" y="306" width="5" height="5"/><rect x="63" y="306" width="5" height="5"/><rect x="68" y="306" width="5" height="5"/><rect x="73" y="306" width="5" height="5"/><rect x="78" y="306" width="5" height="5"/><rect x="68" y="311" width="5" height="5"/><rect x="68" y="316" width="5" height="5"/><rect x="68" y="321" width="5" height="5"/><rect x="68" y="326" width="5" height="5"/><rect x="68" y="331" width="5" height="5"/><rect x="68" y="336" width="5" height="5"/><rect x="88" y="306" width="5" height="5"/><rect x="93" y="306" width="5" height="5"/><rect x="98" y="306" width="5" height="5"/><rect x="103" y="306" width="5" height="5"/><rect x="108" y="306" width="5" height="5"/><rect x="98" y="311" width="5" height="5"/><rect x="98" y="316" width="5" height="5"/><rect x="98" y="321" width="5" height="5"/><rect x="98" y="326" width="5" height="5"/><rect x="98" y="331" width="5" height="5"/><rect x="98" y="336" width="5" height="5"/><rect x="118" y="306" width="5" height="5"/><rect x="123" y="306" width="5" height="5"/><rect x="128" y="306" width="5" height="5"/><rect x="133" y="306" width="5" height="5"/><rect x="138" y="306" width="5" height="5"/><rect x="118" y="311" width="5" height="5"/><rect x="118" y="316" width="5" height="5"/><rect x="118" y="321" width="5" height="5"/><rect x="123" y="321" width="5" height="5"/><rect x="128" y="321" width="5" height="5"/><rect x="133" y="321" width="5" height="5"/><rect x="118" y="326" width="5" height="5"/><rect x="118" y="331" width="5" height="5"/><rect x="118" y="336" width="5" height="5"/><rect x="123" y="336" width="5" height="5"/><rect x="128" y="336" width="5" height="5"/><rect x="133" y="336" width="5" height="5"/><rect x="138" y="336" width="5" height="5"/><rect x="148" y="306" width="5" height="5"/><rect x="168" y="306" width="5" height="5"/><rect x="148" y="311" width="5" height="5"/><rect x="153" y="311" width="5" height="5"/><rect x="168" y="311" width="5" height="5"/><rect x="148" y="316" width="5" height="5"/><rect x="158" y="316" width="5" height="5"/><rect x="168" y="316" width="5" height="5"/><rect x="148" y="321" width="5" height="5"/><rect x="163" y="321" width="5" height="5"/><rect x="168" y="321" width="5" height="5"/><rect x="148" y="326" width="5" height="5"/><rect x="168" y="326" width="5" height="5"/><rect x="148" y="331" width="5" height="5"/><rect x="168" y="331" width="5" height="5"/><rect x="148" y="336" width="5" height="5"/><rect x="168" y="336" width="5" height="5"/><rect x="178" y="306" width="5" height="5"/><rect x="183" y="306" width="5" height="5"/><rect x="188" y="306" width="5" height="5"/><rect x="193" y="306" width="5" height="5"/><rect x="178" y="311" width="5" height="5"/><rect x="198" y="311" width="5" height="5"/><rect x="178" y="316" width="5" height="5"/><rect x="198" y="316" width="5" height="5"/><rect x="178" y="321" width="5" height="5"/><rect x="198" y="321" width="5" height="5"/><rect x="178" y="326" width="5" height="5"/><rect x="198" y="326" width="5" height="5"/><rect x="178" y="331" width="5" height="5"/><rect x="198" y="331" width="5" height="5"/><rect x="178" y="336" width="5" height="5"/><rect x="183" y="336" width="5" height="5"/><rect x="188" y="336" width="5" height="5"/><rect x="193" y="336" width="5" height="5"/><rect x="213" y="306" width="5" height="5"/><rect x="218" y="306" width="5" height="5"/><rect x="223" y="306" width="5" height="5"/><rect x="208" y="311" width="5" height="5"/><rect x="228" y="311" width="5" height="5"/><rect x="208" y="316" width="5" height="5"/><rect x="228" y="316" width="5" height="5"/><rect x="208" y="321" width="5" height="5"/><rect x="213" y="321" width="5" height="5"/><rect x="218" y="321" width="5" height="5"/><rect x="223" y="321" width="5" height="5"/><rect x="228" y="321" width="5" height="5"/><rect x="208" y="326" width="5" height="5"/><rect x="228" y="326" width="5" height="5"/><rect x="208" y="331" width="5" height="5"/><rect x="228" y="331" width="5" height="5"/><rect x="208" y="336" width="5" height="5"/><rect x="228" y="336" width="5" height="5"/><rect x="238" y="306" width="5" height="5"/><rect x="258" y="306" width="5" height="5"/><rect x="238" y="311" width="5" height="5"/><rect x="243" y="311" width="5" height="5"/><rect x="258" y="311" width="5" height="5"/><rect x="238" y="316" width="5" height="5"/><rect x="248" y="316" width="5" height="5"/><rect x="258" y="316" width="5" height="5"/><rect x="238" y="321" width="5" height="5"/><rect x="253" y="321" width="5" height="5"/><rect x="258" y="321" width="5" height="5"/><rect x="238" y="326" width="5" height="5"/><rect x="258" y="326" width="5" height="5"/><rect x="238" y="331" width="5" height="5"/><rect x="258" y="331" width="5" height="5"/><rect x="238" y="336" width="5" height="5"/><rect x="258" y="336" width="5" height="5"/><rect x="268" y="306" width="5" height="5"/><rect x="273" y="306" width="5" height="5"/><rect x="278" y="306" width="5" height="5"/><rect x="283" y="306" width="5" height="5"/><rect x="288" y="306" width="5" height="5"/><rect x="278" y="311" width="5" height="5"/><rect x="278" y="316" width="5" height="5"/><rect x="278" y="321" width="5" height="5"/><rect x="278" y="326" width="5" height="5"/><rect x="278" y="331" width="5" height="5"/><rect x="278" y="336" width="5" height="5"/></g><g fill="#000000"><rect x="33" y="303" width="5" height="5"/><rect x="38" y="303" width="5" height="5"/><rect x="43" y="303" width="5" height="5"/><rect x="28" y="308" width="5" height="5"/><rect x="48" y="308" width="5" height="5"/><rect x="28" y="313" width="5" height="5"/><rect x="48" y="313" width="5" height="5"/><rect x="28" y="318" width="5" height="5"/><rect x="33" y="318" width="5" height="5"/><rect x="38" y="318" width="5" height="5"/><rect x="43" y="318" width="5" height="5"/><rect x="48" y="318" width="5" height="5"/><rect x="28" y="323" width="5" height="5"/><rect x="48" y="323" width="5" height="5"/><rect x="28" y="328" width="5" height="5"/><rect x="48" y="328" width="5" height="5"/><rect x="28" y="333" width="5" height="5"/><rect x="48" y="333" width="5" height="5"/><rect x="58" y="303" width="5" height="5"/><rect x="63" y="303" width="5" height="5"/><rect x="68" y="303" width="5" height="5"/><rect x="73" y="303" width="5" height="5"/><rect x="78" y="303" width="5" height="5"/><rect x="68" y="308" width="5" height="5"/><rect x="68" y="313" width="5" height="5"/><rect x="68" y="318" width="5" height="5"/><rect x="68" y="323" width="5" height="5"/><rect x="68" y="328" width="5" height="5"/><rect x="68" y="333" width="5" height="5"/><rect x="88" y="303" width="5" height="5"/><rect x="93" y="303" width="5" height="5"/><rect x="98" y="303" width="5" height="5"/><rect x="103" y="303" width="5" height="5"/><rect x="108" y="303" width="5" height="5"/><rect x="98" y="308" width="5" height="5"/><rect x="98" y="313" width="5" height="5"/><rect x="98" y="318" width="5" height="5"/><rect x="98" y="323" width="5" height="5"/><rect x="98" y="328" width="5" height="5"/><rect x="98" y="333" width="5" height="5"/><rect x="118" y="303" width="5" height="5"/><rect x="123" y="303" width="5" height="5"/><rect x="128" y="303" width="5" height="5"/><rect x="133" y="303" width="5" height="5"/><rect x="138" y="303" width="5" height="5"/><rect x="118" y="308" width="5" height="5"/><rect x="118" y="313" width="5" height="5"/><rect x="118" y="318" width="5" height="5"/><rect x="123" y="318" width="5" height="5"/><rect x="128" y="318" width="5" height="5"/><rect x="133" y="318" width="5" height="5"/><rect x="118" y="323" width="5" height="5"/><rect x="118" y="328" width="5" height="5"/><rect x="118" y="333" width="5" height="5"/><rect x="123" y="333" width="5" height="5"/><rect x="128" y="333" width="5" height="5"/><rect x="133" y="333" width="5" height="5"/><rect x="138" y="333" width="5" height="5"/><rect x="148" y="303" width="5" height="5"/><rect x="168" y="303" width="5" height="5"/><rect x="148" y="308" width="5" height="5"/><rect x="153" y="308" width="5" height="5"/><rect x="168" y="308" width="5" height="5"/><rect x="148" y="313" width="5" height="5"/><rect x="158" y="313" width="5" height="5"/><rect x="168" y="313" width="5" height="5"/><rect x="148" y="318" width="5" height="5"/><rect x="163" y="318" width="5" height="5"/><rect x="168" y="318" width="5" height="5"/><rect x="148" y="323" width="5" height="5"/><rect x="168" y="323" width="5" height="5"/><rect x="148" y="328" width="5" height="5"/><rect x="168" y="328" width="5" height="5"/><rect x="148" y="333" width="5" height="5"/><rect x="168" y="333" width="5" height="5"/><rect x="178" y="303" width="5" height="5"/><rect x="183" y="303" width="5" height="5"/><rect x="188" y="303" width="5" height="5"/><rect x="193" y="303" width="5" height="5"/><rect x="178" y="308" width="5" height="5"/><rect x="198" y="308" width="5" height="5"/><rect x="178" y="313" width="5" height="5"/><rect x="198" y="313" width="5" height="5"/><rect x="178" y="318" width="5" height="5"/><rect x="198" y="318" width="5" height="5"/><rect x="178" y="323" width="5" height="5"/><rect x="198" y="323" width="5" height="5"/><rect x="178" y="328" width="5" height="5"/><rect x="198" y="328" width="5" height="5"/><rect x="178" y="333" width="5" height="5"/><rect x="183" y="333" width="5" height="5"/><rect x="188" y="333" width="5" height="5"/><rect x="193" y="333" width="5" height="5"/><rect x="213" y="303" width="5" height="5"/><rect x="218" y="303" width="5" height="5"/><rect x="223" y="303" width="5" height="5"/><rect x="208" y="308" width="5" height="5"/><rect x="228" y="308" width="5" height="5"/><rect x="208" y="313" width="5" height="5"/><rect x="228" y="313" width="5" height="5"/><rect x="208" y="318" width="5" height="5"/><rect x="213" y="318" width="5" height="5"/><rect x="218" y="318" width="5" height="5"/><rect x="223" y="318" width="5" height="5"/><rect x="228" y="318" width="5" height="5"/><rect x="208" y="323" width="5" height="5"/><rect x="228" y="323" width="5" height="5"/><rect x="208" y="328" width="5" height="5"/><rect x="228" y="328" width="5" height="5"/><rect x="208" y="333" width="5" height="5"/><rect x="228" y="333" width="5" height="5"/><rect x="238" y="303" width="5" height="5"/><rect x="258" y="303" width="5" height="5"/><rect x="238" y="308" width="5" height="5"/><rect x="243" y="308" width="5" height="5"/><rect x="258" y="308" width="5" height="5"/><rect x="238" y="313" width="5" height="5"/><rect x="248" y="313" width="5" height="5"/><rect x="258" y="313" width="5" height="5"/><rect x="238" y="318" width="5" height="5"/><rect x="253" y="318" width="5" height="5"/><rect x="258" y="318" width="5" height="5"/><rect x="238" y="323" width="5" height="5"/><rect x="258" y="323" width="5" height="5"/><rect x="238" y="328" width="5" height="5"/><rect x="258" y="328" width="5" height="5"/><rect x="238" y="333" width="5" height="5"/><rect x="258" y="333" width="5" height="5"/><rect x="268" y="303" width="5" height="5"/><rect x="273" y="303" width="5" height="5"/><rect x="278" y="303" width="5" height="5"/><rect x="283" y="303" width="5" height="5"/><rect x="288" y="303" width="5" height="5"/><rect x="278" y="308" width="5" height="5"/><rect x="278" y="313" width="5" height="5"/><rect x="278" y="318" width="5" height="5"/><rect x="278" y="323" width="5" height="5"/><rect x="278" y="328" width="5" height="5"/><rect x="278" y="333" width="5" height="5"/></g><rect x="16" y="356" width="288" height="20" fill="#000000"/><g fill="#000000"><rect x="27.6" y="3610" width="1.6" height="1.6"/><rect x="29.2" y="3610" width="1.6" height="1.6"/><rect x="30.8" y="3610" width="1.6" height="1.6"/><rect x="32.4" y="3610" width="1.6" height="1.6"/><rect x="26" y="3611.6" width="1.6" height="1.6"/><rect x="26" y="3613.2" width="1.6" height="1.6"/><rect x="26" y="3614.800000000000001" width="1.6" height="1.6"/><rect x="26" y="3616.4" width="1.6" height="1.6"/><rect x="26" y="3618" width="1.6" height="1.6"/><rect x="27.6" y="3619.600000000000001" width="1.6" height="1.6"/><rect x="29.2" y="3619.600000000000001" width="1.6" height="1.6"/><rect x="30.8" y="3619.600000000000001" width="1.6" height="1.6"/><rect x="32.4" y="3619.600000000000001" width="1.6" height="1.6"/><rect x="37.2" y="3610" width="1.6" height="1.6"/><rect x="38.8" y="3610" width="1.6" height="1.6"/><rect x="40.4" y="3610" width="1.6" height="1.6"/><rect x="35.6" y="3611.6" width="1.6" height="1.6"/><rect x="42" y="3611.6" width="1.6" height="1.6"/><rect x="35.6" y="3613.2" width="1.6" height="1.6"/><rect x="42" y="3613.2" width="1.6" height="1.6"/><rect x="35.6" y="3614.800000000000001" width="1.6" height="1.6"/><rect x="37.2" y="3614.800000000000001" width="1.6" height="1.6"/><rect x="38.8" y="3614.800000000000001" width="1.6" height="1.6"/><rect x="40.4" y="3614.800000000000001" width="1.6" height="1.6"/><rect x="42" y="3614.800000000000001" width="1.6" height="1.6"/><rect x="35.6" y="3616.4" width="1.6" height="1.6"/><rect x="42" y="3616.4" width="1.6" height="1.6"/><rect x="35.6" y="3618" width="1.6" height="1.6"/><rect x="42" y="3618" width="1.6" height="1.6"/><rect x="35.6" y="3619.600000000000001" width="1.6" height="1.6"/><rect x="42" y="3619.600000000000001" width="1.6" height="1.6"/><rect x="45.2" y="3610" width="1.6" height="1.6"/><rect x="46.8" y="3610" width="1.6" height="1.6"/><rect x="48.400000000000006" y="3610" width="1.6" height="1.6"/><rect x="50" y="3610" width="1.6" height="1.6"/><rect x="45.2" y="3611.6" width="1.6" height="1.6"/><rect x="51.6" y="3611.6" width="1.6" height="1.6"/><rect x="45.2" y="3613.2" width="1.6" height="1.6"/><rect x="51.6" y="3613.2" width="1.6" height="1.6"/><rect x="45.2" y="3614.800000000000001" width="1.6" height="1.6"/><rect x="46.8" y="3614.800000000000001" width="1.6" height="1.6"/><rect x="48.400000000000006" y="3614.800000000000001" width="1.6" height="1.6"/><rect x="50" y="3614.800000000000001" width="1.6" height="1.6"/><rect x="45.2" y="3616.4" width="1.6" height="1.6"/><rect x="48.400000000000006" y="3616.4" width="1.6" height="1.6"/><rect x="45.2" y="3618" width="1.6" height="1.6"/><rect x="50" y="3618" width="1.6" height="1.6"/><rect x="45.2" y="3619.600000000000001" width="1.6" height="1.6"/><rect x="51.6" y="3619.600000000000001" width="1.6" height="1.6"/><rect x="54.8" y="3610" width="1.6" height="1.6"/><rect x="56.400000000000006" y="3610" width="1.6" height="1.6"/><rect x="58" y="3610" width="1.6" height="1.6"/><rect x="59.6" y="3610" width="1.6" height="1.6"/><rect x="61.2" y="3610" width="1.6" height="1.6"/><rect x="58" y="3611.6" width="1.6" height="1.6"/><rect x="58" y="3613.2" width="1.6" height="1.6"/><rect x="58" y="3614.800000000000001" width="1.6" height="1.6"/><rect x="58" y="3616.4" width="1.6" height="1.6"/><rect x="58" y="3618" width="1.6" height="1.6"/><rect x="58" y="3619.600000000000001" width="1.6" height="1.6"/><rect x="64.4" y="3610" width="1.6" height="1.6"/><rect x="66" y="3610" width="1.6" height="1.6"/><rect x="67.6" y="3610" width="1.6" height="1.6"/><rect x="69.2" y="3610" width="1.6" height="1.6"/><rect x="64.4" y="3611.6" width="1.6" height="1.6"/><rect x="70.80000000000001" y="3611.6" width="1.6" height="1.6"/><rect x="64.4" y="3613.2" width="1.6" height="1.6"/><rect x="70.80000000000001" y="3613.2" width="1.6" height="1.6"/><rect x="64.4" y="3614.800000000000001" width="1.6" height="1.6"/><rect x="66" y="3614.800000000000001" width="1.6" height="1.6"/><rect x="67.6" y="3614.800000000000001" width="1.6" height="1.6"/><rect x="69.2" y="3614.800000000000001" width="1.6" height="1.6"/><rect x="64.4" y="3616.4" width="1.6" height="1.6"/><rect x="67.6" y="3616.4" width="1.6" height="1.6"/><rect x="64.4" y="3618" width="1.6" height="1.6"/><rect x="69.2" y="3618" width="1.6" height="1.6"/><rect x="64.4" y="3619.600000000000001" width="1.6" height="1.6"/><rect x="70.80000000000001" y="3619.600000000000001" width="1.6" height="1.6"/><rect x="74" y="3610" width="1.6" height="1.6"/><rect x="75.6" y="3610" width="1.6" height="1.6"/><rect x="77.2" y="3610" width="1.6" height="1.6"/><rect x="78.80000000000001" y="3610" width="1.6" height="1.6"/><rect x="80.4" y="3610" width="1.6" height="1.6"/><rect x="77.2" y="3611.6" width="1.6" height="1.6"/><rect x="77.2" y="3613.2" width="1.6" height="1.6"/><rect x="77.2" y="3614.800000000000001" width="1.6" height="1.6"/><rect x="77.2" y="3616.4" width="1.6" height="1.6"/><rect x="77.2" y="3618" width="1.6" height="1.6"/><rect x="74" y="3619.600000000000001" width="1.6" height="1.6"/><rect x="75.6" y="3619.600000000000001" width="1.6" height="1.6"/><rect x="77.2" y="3619.600000000000001" width="1.6" height="1.6"/><rect x="78.80000000000001" y="3619.600000000000001" width="1.6" height="1.6"/><rect x="80.4" y="3619.600000000000001" width="1.6" height="1.6"/><rect x="83.6" y="3610" width="1.6" height="1.6"/><rect x="85.2" y="3610" width="1.6" height="1.6"/><rect x="86.80000000000001" y="3610" width="1.6" height="1.6"/><rect x="88.4" y="3610" width="1.6" height="1.6"/><rect x="83.6" y="3611.6" width="1.6" height="1.6"/><rect x="90" y="3611.6" width="1.6" height="1.6"/><rect x="83.6" y="3613.2" width="1.6" height="1.6"/><rect x="90" y="3613.2" width="1.6" height="1.6"/><rect x="83.6" y="3614.800000000000001" width="1.6" height="1.6"/><rect x="90" y="3614.800000000000001" width="1.6" height="1.6"/><rect x="83.6" y="3616.4" width="1.6" height="1.6"/><rect x="90" y="3616.4" width="1.6" height="1.6"/><rect x="83.6" y="3618" width="1.6" height="1.6"/><rect x="90" y="3618" width="1.6" height="1.6"/><rect x="83.6" y="3619.600000000000001" width="1.6" height="1.6"/><rect x="85.2" y="3619.600000000000001" width="1.6" height="1.6"/><rect x="86.80000000000001" y="3619.600000000000001" width="1.6" height="1.6"/><rect x="88.4" y="3619.600000000000001" width="1.6" height="1.6"/><rect x="94.8" y="3610" width="1.6" height="1.6"/><rect x="96.4" y="3610" width="1.6" height="1.6"/><rect x="98" y="3610" width="1.6" height="1.6"/><rect x="99.60000000000001" y="3610" width="1.6" height="1.6"/><rect x="93.2" y="3611.6" width="1.6" height="1.6"/><rect x="93.2" y="3613.2" width="1.6" height="1.6"/><rect x="93.2" y="3614.800000000000001" width="1.6" height="1.6"/><rect x="98" y="3614.800000000000001" width="1.6" height="1.6"/><rect x="99.60000000000001" y="3614.800000000000001" width="1.6" height="1.6"/><rect x="93.2" y="3616.4" width="1.6" height="1.6"/><rect x="99.60000000000001" y="3616.4" width="1.6" height="1.6"/><rect x="93.2" y="3618" width="1.6" height="1.6"/><rect x="99.60000000000001" y="3618" width="1.6" height="1.6"/><rect x="94.8" y="3619.600000000000001" width="1.6" height="1.6"/><rect x="96.4" y="3619.600000000000001" width="1.6" height="1.6"/><rect x="98" y="3619.600000000000001" width="1.6" height="1.6"/><rect x="99.60000000000001" y="3619.600000000000001" width="1.6" height="1.6"/><rect x="102.80000000000001" y="3610" width="1.6" height="1.6"/><rect x="104.4" y="3610" width="1.6" height="1.6"/><rect x="106" y="3610" width="1.6" height="1.6"/><rect x="107.60000000000001" y="3610" width="1.6" height="1.6"/><rect x="109.2" y="3610" width="1.6" height="1.6"/><rect x="102.80000000000001" y="3611.6" width="1.6" height="1.6"/><rect x="102.80000000000001" y="3613.2" width="1.6" height="1.6"/><rect x="102.80000000000001" y="3614.800000000000001" width="1.6" height="1.6"/><rect x="104.4" y="3614.800000000000001" width="1.6" height="1.6"/><rect x="106" y="3614.800000000000001" width="1.6" height="1.6"/><rect x="107.60000000000001" y="3614.800000000000001" width="1.6" height="1.6"/><rect x="102.80000000000001" y="3616.4" width="1.6" height="1.6"/><rect x="102.80000000000001" y="3618" width="1.6" height="1.6"/><rect x="102.80000000000001" y="3619.600000000000001" width="1.6" height="1.6"/><rect x="104.4" y="3619.600000000000001" width="1.6" height="1.6"/><rect x="106" y="3619.600000000000001" width="1.6" height="1.6"/><rect x="107.60000000000001" y="3619.600000000000001" width="1.6" height="1.6"/><rect x="109.2" y="3619.600000000000001" width="1.6" height="1.6"/><rect x="141.2" y="3610" width="1.6" height="1.6"/><rect x="146" y="3610" width="1.6" height="1.6"/><rect x="141.2" y="3611.6" width="1.6" height="1.6"/><rect x="146" y="3611.6" width="1.6" height="1.6"/><rect x="141.2" y="3613.2" width="1.6" height="1.6"/><rect x="146" y="3613.2" width="1.6" height="1.6"/><rect x="141.2" y="3614.800000000000001" width="1.6" height="1.6"/><rect x="142.8" y="3614.800000000000001" width="1.6" height="1.6"/><rect x="144.4" y="3614.800000000000001" width="1.6" height="1.6"/><rect x="146" y="3614.800000000000001" width="1.6" height="1.6"/><rect x="147.60000000000002" y="3614.800000000000001" width="1.6" height="1.6"/><rect x="146" y="3616.4" width="1.6" height="1.6"/><rect x="146" y="3618" width="1.6" height="1.6"/><rect x="146" y="3619.600000000000001" width="1.6" height="1.6"/><rect x="152.4" y="3610" width="1.6" height="1.6"/><rect x="154" y="3610" width="1.6" height="1.6"/><rect x="155.6" y="3610" width="1.6" height="1.6"/><rect x="150.8" y="3611.6" width="1.6" height="1.6"/><rect x="150.8" y="3613.2" width="1.6" height="1.6"/><rect x="150.8" y="3614.800000000000001" width="1.6" height="1.6"/><rect x="152.4" y="3614.800000000000001" width="1.6" height="1.6"/><rect x="154" y="3614.800000000000001" width="1.6" height="1.6"/><rect x="155.6" y="3614.800000000000001" width="1.6" height="1.6"/><rect x="150.8" y="3616.4" width="1.6" height="1.6"/><rect x="157.20000000000002" y="3616.4" width="1.6" height="1.6"/><rect x="150.8" y="3618" width="1.6" height="1.6"/><rect x="157.20000000000002" y="3618" width="1.6" height="1.6"/><rect x="152.4" y="3619.600000000000001" width="1.6" height="1.6"/><rect x="154" y="3619.600000000000001" width="1.6" height="1.6"/><rect x="155.6" y="3619.600000000000001" width="1.6" height="1.6"/><rect x="162" y="3610" width="1.6" height="1.6"/><rect x="163.6" y="3610" width="1.6" height="1.6"/><rect x="165.20000000000002" y="3610" width="1.6" height="1.6"/><rect x="160.4" y="3611.6" width="1.6" height="1.6"/><rect x="160.4" y="3613.2" width="1.6" height="1.6"/><rect x="160.4" y="3614.800000000000001" width="1.6" height="1.6"/><rect x="162" y="3614.800000000000001" width="1.6" height="1.6"/><rect x="163.6" y="3614.800000000000001" width="1.6" height="1.6"/><rect x="165.20000000000002" y="3614.800000000000001" width="1.6" height="1.6"/><rect x="160.4" y="3616.4" width="1.6" height="1.6"/><rect x="166.8" y="3616.4" width="1.6" height="1.6"/><rect x="160.4" y="3618" width="1.6" height="1.6"/><rect x="166.8" y="3618" width="1.6" height="1.6"/><rect x="162" y="3619.600000000000001" width="1.6" height="1.6"/><rect x="163.6" y="3619.600000000000001" width="1.6" height="1.6"/><rect x="165.20000000000002" y="3619.600000000000001" width="1.6" height="1.6"/><rect x="170" y="3610" width="1.6" height="1.6"/><rect x="171.6" y="3610" width="1.6" height="1.6"/><rect x="173.20000000000002" y="3610" width="1.6" height="1.6"/><rect x="174.8" y="3610" width="1.6" height="1.6"/><rect x="176.4" y="3611.6" width="1.6" height="1.6"/><rect x="176.4" y="3613.2" width="1.6" height="1.6"/><rect x="171.6" y="3614.800000000000001" width="1.6" height="1.6"/><rect x="173.20000000000002" y="3614.800000000000001" width="1.6" height="1.6"/><rect x="174.8" y="3614.800000000000001" width="1.6" height="1.6"/><rect x="176.4" y="3616.4" width="1.6" height="1.6"/><rect x="176.4" y="3618" width="1.6" height="1.6"/><rect x="170" y="3619.600000000000001" width="1.6" height="1.6"/><rect x="171.6" y="3619.600000000000001" width="1.6" height="1.6"/><rect x="173.20000000000002" y="3619.600000000000001" width="1.6" height="1.6"/><rect x="174.8" y="3619.600000000000001" width="1.6" height="1.6"/></g></svg>
